<?xml version="1.0" encoding="UTF-8" standalone="no"?>
<svg width="200" height="200" viewBox="0 0 200 200" preserveAspectRatio="none" xmlns="http://www.w3.org/2000/svg" xmlns:xlink="http://www.w3.org/1999/xlink"><path fill="rgb(0,118,236)" d="M 200 100L 150 13.397459621556141L 50 13.397459621556141L 0 100L 50 186.60254037844385L 150 186.60254037844385Z" /><path fill="rgb(32,164,255)" d="M 135 186.60254037844385L 150 186.60254037844385L 200 100L 150 13.397459621556141L 135 13.397459621556141L 185 100" /><path fill="rgb(32,164,255)" d="M 65 186.60254037844385L 50 186.60254037844385L 0 100L 50 13.397459621556141L 65 13.397459621556141L 15 100" /><path fill="rgb(0,32,220)" d="M 170 100L 135 160.6217782649107L 65 160.6217782649107L 30 100L 65 39.3782217350893L 135 39.3782217350893Z" /><path fill="#ffffff" d="M 71.875 73.4375L 85.9375 73.4375L 100 112.5L 114.0625 73.4375L 128.125 73.4375L 107.03125 126.5625L 92.96875 126.5625Z" /></svg>
